<?xml version="1.0" encoding="UTF-8"?> <svg xmlns="http://www.w3.org/2000/svg" id="Layer_1" viewBox="0 0 687.53 131.89"> 
<defs> <style>.cls-1{fill:#fff;}.cls-2{fill:none;stroke:#fff;stroke-miterlimit:10;stroke-width:4px;}</style> 
</defs> <rect class="cls-2" x="2" y="2" width="683.53" height="127.89"></rect> 
<path class="cls-1" d="M149.45,83.45c2.39,0,4.57-.43,6.53-1.31,1.96-.87,3.67-2.11,5.11-3.73,1.44-1.62,2.57-3.5,3.4-5.64s1.23-4.48,1.23-7.02-.41-4.88-1.23-7.02c-.82-2.14-1.95-4.02-3.4-5.64-1.44-1.62-3.15-2.86-5.11-3.73-1.97-.87-4.14-1.31-6.53-1.31s-4.5,.44-6.49,1.31c-1.99,.87-3.71,2.1-5.15,3.7-1.44,1.59-2.56,3.46-3.36,5.6-.8,2.14-1.19,4.5-1.19,7.09s.4,4.89,1.19,7.05c.8,2.16,1.91,4.04,3.36,5.64,1.44,1.59,3.16,2.83,5.15,3.69,1.99,.87,4.15,1.31,6.49,1.31m0,9.26c-3.73,0-7.19-.67-10.38-2.02-3.18-1.34-5.96-3.22-8.32-5.64-2.36-2.41-4.19-5.26-5.49-8.55-1.29-3.28-1.94-6.87-1.94-10.75s.65-7.46,1.94-10.75c1.29-3.29,3.12-6.13,5.49-8.55,2.36-2.41,5.14-4.29,8.32-5.64,3.19-1.34,6.64-2.02,10.38-2.02s7.27,.67,10.45,2.02c3.18,1.34,5.95,3.24,8.29,5.67,2.34,2.44,4.15,5.29,5.45,8.55,1.29,3.26,1.94,6.83,1.94,10.71s-.65,7.39-1.94,10.67c-1.29,3.29-3.11,6.15-5.45,8.59-2.34,2.44-5.1,4.33-8.29,5.67-3.18,1.34-6.67,2.02-10.45,2.02"></path> <path class="cls-1" d="M197.3,63.89h11.35c1.24,0,2.38-.35,3.4-1.04,1.02-.7,1.84-1.62,2.46-2.76,.62-1.14,.93-2.44,.93-3.88s-.31-2.72-.93-3.84c-.62-1.12-1.44-2.02-2.46-2.69-1.02-.67-2.15-1.01-3.4-1.01h-11.35v15.23Zm-9.7,28.07V39.7h21.72c2.99,0,5.69,.72,8.1,2.17,2.41,1.44,4.34,3.41,5.79,5.9,1.44,2.49,2.16,5.28,2.16,8.36s-.72,5.96-2.16,8.47c-1.44,2.51-3.37,4.52-5.79,6.01-2.41,1.49-5.11,2.24-8.1,2.24h-12.02v19.11h-9.7Z"></path> <polygon class="cls-1" points="247.61 91.95 247.61 48.66 232.68 48.66 232.68 39.7 272.69 39.7 272.69 48.66 257.31 48.66 257.31 91.95 247.61 91.95"></polygon> <polygon class="cls-1" points="297.28 91.95 287.58 91.95 287.58 83.37 287.58 48.29 287.58 39.7 297.28 39.7 297.28 48.29 297.28 83.37 297.28 91.95"></polygon> <path class="cls-1" d="M356.22,39.7l-16.58,26.6-16.34-26.6h-9.59v52.25h10.04v-19.63c0-4.83-.11-8.99-.34-12.5-.08-1.31-.21-2.6-.34-3.89l13.82,21.84h4.93l14.22-21.96c-.15,1.47-.28,2.94-.38,4.42-.22,3.58-.33,7.61-.33,12.09v19.63h9.63V39.7h-8.73Z"></path> <path class="cls-1" d="M390.42,71.58l3.46-9.11c.35-1,.73-2.11,1.16-3.36,.42-1.24,.86-2.54,1.31-3.88,.45-1.34,.87-2.64,1.27-3.88,.04-.11,.07-.21,.1-.32,.39,1.29,.83,2.68,1.32,4.17,.5,1.52,.96,2.92,1.38,4.22,.42,1.29,.76,2.24,1.01,2.84l3.52,9.33h-14.51Zm22.2,20.38h10.08l-20.23-52.25h-9.11l-20.38,52.25h9.7l4.54-11.94h20.9l4.5,11.94Z"></path> <polygon class="cls-1" points="479.63 91.95 460.83 66.05 478.89 39.7 467.54 39.7 455.38 58.26 442.68 39.7 430.59 39.7 448.96 65.21 430.22 91.95 441.56 91.95 454.5 73.08 467.54 91.95 479.63 91.95"></polygon> <path class="cls-1" d="M518.9,84.41l-.75-1.42h11.64c2.44,0,4.61-.4,6.53-1.19,1.92-.8,3.55-1.94,4.89-3.43,1.34-1.49,2.36-3.3,3.06-5.41,.7-2.11,1.05-4.49,1.05-7.13s-.35-5.01-1.05-7.13c-.7-2.11-1.73-3.92-3.1-5.41-1.37-1.49-3-2.64-4.89-3.43-1.89-.8-4.06-1.2-6.49-1.2h-11.87l.97-1.27v37.02Zm-9.7,7.54V39.7h20.98c3.78,0,7.2,.62,10.26,1.87,3.06,1.24,5.7,3.04,7.91,5.37,2.21,2.34,3.91,5.1,5.08,8.29,1.17,3.18,1.76,6.72,1.76,10.6s-.59,7.43-1.76,10.64c-1.17,3.21-2.85,5.97-5.04,8.29s-4.83,4.09-7.91,5.34c-3.09,1.24-6.52,1.87-10.3,1.87h-20.98Z"></path> <polygon class="cls-1" points="575.25 83.15 575.25 69.56 596.08 69.56 596.08 60.9 575.25 60.9 575.25 48.51 599.89 48.51 599.89 39.7 565.7 39.7 565.7 91.95 600.19 91.95 600.19 83.15 575.25 83.15"></polygon> <path class="cls-1" d="M646.69,39.7l-10.9,29.93c-.75,1.94-1.38,3.66-1.9,5.15-.52,1.49-.98,2.9-1.38,4.22-.05,.16-.09,.32-.13,.47-.24-.78-.48-1.57-.76-2.38-.35-.99-.75-2.1-1.19-3.32-.45-1.22-.97-2.6-1.57-4.14l-11.64-29.93h-10.6l20.9,52.25h8.81l21.05-52.25h-10.67Z"></path> <path class="cls-1" d="M35.32,28.74c.73-1.11,1.78-1.84,3.06-1.84h.05c5.58,0,15.24,12.52,19.18,17.93,3.04-.71,6.23-1.02,9.54-1.02s6.5,.35,9.54,1.05c3.94-5.41,13.6-17.96,19.18-17.96h.05c1.27,0,2.33,.73,3.05,1.84,3.67,5.61,2.72,25.98,2.1,34.84-10.79-.49-23.83-2.75-29.02,3.41-1.84-2.46-8.2-2.06-10.15,0-4.95-6.29-18.01-3.92-28.69-3.44-.61-8.85-1.57-29.2,2.1-34.81"></path> <path class="cls-1" d="M94.4,84.6c-9.35,7.2-24.25-1.6-19.63-15.56,3.74-5.87,17.64-4.41,23.36-1.36,1.75,6.81,.17,13.92-3.73,16.92"></path> <path class="cls-1" d="M39.9,84.6c-3.83-2.95-5.05-9.14-4.06-16.24,4.92-4.19,19.41-4.89,23.69,.34,4.72,14.08-10.14,23.21-19.64,15.9"></path> <path class="cls-1" d="M67.15,104.6c-19.9,0-36.03-13.59-36.03-30.36,0-1.21,.1-2.4,.26-3.56,.44,.15,.82,.37,1.07,.73,.72,6.57,2.1,12.63,6.44,15.57,6.51,4.44,18.57,1.54,21.66-3.05,3.08-4.57,1.13-13.34,6.78-13.2,5.55,.15,3.58,8.25,6.08,12.53,2.46,4.19,8.39,6.89,16.59,5.76,8.38-1.15,11.11-8.46,11.85-17.94,.35-.13,.71-.25,1.07-.36,.17,1.16,.26,2.34,.26,3.54,0,16.77-16.14,30.36-36.04,30.36"></path> </svg> 